<svg width="18" height="14" viewBox="0 0 18 14" fill="none" xmlns="http://www.w3.org/2000/svg">
<path fill-rule="evenodd" clip-rule="evenodd" d="M9.00002 4C7.34317 4 6.00002 5.34315 6.00002 7C6.00002 8.65685 7.34317 10 9.00002 10C10.6569 10 12 8.65685 12 7C12 5.34315 10.6569 4 9.00002 4ZM7.20002 7C7.20002 6.00589 8.00591 5.2 9.00002 5.2C9.99414 5.2 10.8 6.00589 10.8 7C10.8 7.99411 9.99414 8.8 9.00002 8.8C8.00591 8.8 7.20002 7.99411 7.20002 7Z" fill="#4A3C73"/>
<path fill-rule="evenodd" clip-rule="evenodd" d="M9.00002 0C5.38872 0 2.95626 2.16336 1.54448 3.99749L1.51902 4.03056C1.19974 4.44523 0.905672 4.82714 0.706174 5.27872C0.49254 5.7623 0.400024 6.28935 0.400024 7C0.400024 7.71065 0.49254 8.2377 0.706174 8.72128C0.905674 9.17287 1.19974 9.55478 1.51902 9.96945L1.54448 10.0025C2.95626 11.8366 5.38872 14 9.00002 14C12.6113 14 15.0438 11.8366 16.4556 10.0025L16.481 9.96946C16.8003 9.55479 17.0944 9.17287 17.2939 8.72128C17.5075 8.2377 17.6 7.71065 17.6 7C17.6 6.28935 17.5075 5.7623 17.2939 5.27872C17.0944 4.82713 16.8003 4.44521 16.481 4.03054L16.4556 3.99749C15.0438 2.16336 12.6113 0 9.00002 0ZM2.4954 4.72944C3.79893 3.03594 5.92031 1.2 9.00002 1.2C12.0797 1.2 14.2011 3.03594 15.5047 4.72944C15.8555 5.18527 16.061 5.45765 16.1962 5.76364C16.3226 6.04961 16.4 6.39915 16.4 7C16.4 7.60085 16.3226 7.95039 16.1962 8.23636C16.061 8.54236 15.8555 8.81473 15.5047 9.27056C14.2011 10.9641 12.0797 12.8 9.00002 12.8C5.92031 12.8 3.79893 10.9641 2.4954 9.27056C2.14453 8.81473 1.93901 8.54235 1.80383 8.23636C1.67749 7.95039 1.60002 7.60085 1.60002 7C1.60002 6.39915 1.67749 6.04961 1.80383 5.76364C1.93901 5.45765 2.14453 5.18527 2.4954 4.72944Z" fill="#4A3C73"/>
</svg>
